<?xml version="1.0" encoding="utf-8"?>
<!-- Generator: Adobe Illustrator 16.0.4, SVG Export Plug-In . SVG Version: 6.00 Build 0)  -->
<!DOCTYPE svg PUBLIC "-//W3C//DTD SVG 1.1//EN" "http://www.w3.org/Graphics/SVG/1.1/DTD/svg11.dtd">
<svg version="1.1" id="Layer_1" xmlns="http://www.w3.org/2000/svg" xmlns:xlink="http://www.w3.org/1999/xlink" x="0px" y="0px"
	 width="11.021px" height="12px" viewBox="0 0 11.021 12" enable-background="new 0 0 11.021 12" xml:space="preserve">
<path d="M9.939,0.979H9.167V0.566C9.167,0.253,8.914,0,8.601,0C8.288,0,8.034,0.253,8.034,0.566v0.412H3.09V0.566
	C3.09,0.253,2.836,0,2.523,0C2.211,0,1.957,0.253,1.957,0.566v0.412H1.082C0.485,0.979,0,1.464,0,2.06v8.858
	C0,11.514,0.485,12,1.082,12h8.858c0.597,0,1.082-0.485,1.082-1.081V2.06C11.021,1.464,10.536,0.979,9.939,0.979z M1.957,2.111
	v0.412c0,0.313,0.254,0.566,0.566,0.566c0.313,0,0.566-0.253,0.566-0.566V2.111h4.944v0.412c0,0.313,0.254,0.566,0.566,0.566
	c0.313,0,0.566-0.253,0.566-0.566V2.111h0.722v1.133H1.133V2.111H1.957z M1.133,10.867V4.377h8.756v6.489H1.133z"/>
</svg>
